# xmcd CD database file
#
# Track frame offsets:
#	183
#	12884
#	26711
#	38696
#	52967
#	67505
#	80966
#	95916
#	111012
#	124113
#	137127
#	150339
#	163028
#	175950
#	186315
#	203547
#	219996
#	232824
#
# Disc length: 3421 seconds
#
# Revision: 0
# Processed by: cddbd v1.5PL3 Copyright (c) Steve Scherf et al.
# Submitted via: CDex 1.51
#
DISCID=e70d5b12
DTITLE=Django Reinhardt - Integrale 13, "Echoes of France", Disc 1
DYEAR=2003
DGENRE=Jazz
TTITLE0=Echoes of France (La Marseillaise)
TTITLE1=Coquette
TTITLE2=Django's Tiger
TTITLE3=Embraceable You 
TTITLE4=Love's Melody (Melodie Au Crepuscule)
TTITLE5=Belleville
TTITLE6=Nuages (Take 1)
TTITLE7=Nuages (Take 2)
TTITLE8=Liza 
TTITLE9=Swingtime in Springtime
TTITLE10=Yours and Mine
TTITLE11=On the Sunny Side of the Street
TTITLE12=I Won't Dance 
TTITLE13=Ride, Red, Ride
TTITLE14=A Blues Riff
TTITLE15=Honeysuckle Rose
TTITLE16=Improvisation N  7 
TTITLE17=No Name Blues - Love's Melody - Castle of My Dreams 
EXTD=YEAR: 2003
EXTT0=
EXTT1=
EXTT2=
EXTT3=
EXTT4=
EXTT5=
EXTT6=
EXTT7=
EXTT8=
EXTT9=
EXTT10=
EXTT11=
EXTT12=
EXTT13=
EXTT14=
EXTT15=
EXTT16=
EXTT17=
PLAYORDER=
